<svg width="40" height="40" viewBox="0 0 40 40" fill="none" xmlns="http://www.w3.org/2000/svg">
<path d="M0 0H40V40H0V0Z" fill="#C8C8C8"/>
<path d="M16.707 27.707L26 18.414L21.586 14L12.293 23.293C12.1651 23.4211 12.0742 23.5814 12.03 23.757L11 29L16.242 27.97C16.418 27.926 16.579 27.835 16.707 27.707ZM29 15.414C29.3749 15.0389 29.5856 14.5303 29.5856 14C29.5856 13.4697 29.3749 12.9611 29 12.586L27.414 11C27.0389 10.6251 26.5303 10.4144 26 10.4144C25.4697 10.4144 24.9611 10.6251 24.586 11L23 12.586L27.414 17L29 15.414Z" fill="#FAFAFA"/>
</svg>
