<svg width="30" height="31" viewBox="0 0 30 31" fill="none" xmlns="http://www.w3.org/2000/svg">
<circle cx="15" cy="15.9836" r="15" fill="#505050"/>
<path d="M14.9988 12.1311C13.9769 12.1311 12.9968 12.5371 12.2741 13.2597C11.5515 13.9824 11.1455 14.9625 11.1455 15.9844C11.1455 17.0064 11.5515 17.9865 12.2741 18.7092C12.9968 19.4318 13.9769 19.8378 14.9988 19.8378C16.0208 19.8378 17.0009 19.4318 17.7236 18.7092C18.4462 17.9865 18.8522 17.0064 18.8522 15.9844C18.8522 14.9625 18.4462 13.9824 17.7236 13.2597C17.0009 12.5371 16.0208 12.1311 14.9988 12.1311ZM14.9988 18.4869C14.3349 18.4869 13.6982 18.2232 13.2287 17.7537C12.7593 17.2843 12.4955 16.6475 12.4955 15.9836C12.4955 15.3197 12.7593 14.6829 13.2287 14.2135C13.6982 13.744 14.3349 13.4803 14.9988 13.4803C15.6628 13.4803 16.2995 13.744 16.769 14.2135C17.2384 14.6829 17.5022 15.3197 17.5022 15.9836C17.5022 16.6475 17.2384 17.2843 16.769 17.7537C16.2995 18.2232 15.6628 18.4869 14.9988 18.4869Z" fill="white"/>
<path d="M19.0048 12.8877C19.5009 12.8877 19.9031 12.4855 19.9031 11.9894C19.9031 11.4933 19.5009 11.0911 19.0048 11.0911C18.5086 11.0911 18.1064 11.4933 18.1064 11.9894C18.1064 12.4855 18.5086 12.8877 19.0048 12.8877Z" fill="white"/>
<path d="M22.1111 11.0761C21.9182 10.5779 21.6234 10.1255 21.2456 9.74784C20.8677 9.37016 20.4152 9.07552 19.917 8.88279C19.3339 8.66392 18.7179 8.54558 18.0953 8.53279C17.2928 8.49779 17.0386 8.48779 15.0036 8.48779C12.9686 8.48779 12.7078 8.48779 11.912 8.53279C11.2898 8.54492 10.6743 8.66329 10.092 8.88279C9.59357 9.07529 9.14092 9.36985 8.76306 9.74757C8.38521 10.1253 8.09048 10.5778 7.89779 11.0761C7.67887 11.6591 7.5608 12.2752 7.54862 12.8978C7.51279 13.6995 7.50195 13.9536 7.50195 15.9895C7.50195 18.0245 7.50195 18.2836 7.54862 19.0811C7.56112 19.7045 7.67862 20.3195 7.89779 20.9036C8.09102 21.4018 8.38603 21.8541 8.76398 22.2318C9.14193 22.6094 9.59451 22.9041 10.0928 23.097C10.674 23.3246 11.2898 23.4514 11.9136 23.472C12.7161 23.507 12.9703 23.5178 15.0053 23.5178C17.0403 23.5178 17.3011 23.5178 18.097 23.472C18.7195 23.4593 19.3355 23.3412 19.9186 23.1228C20.4167 22.9296 20.8691 22.6347 21.2469 22.2569C21.6247 21.8791 21.9196 21.4268 22.1128 20.9286C22.332 20.3453 22.4495 19.7303 22.462 19.107C22.4978 18.3053 22.5086 18.0511 22.5086 16.0153C22.5086 13.9795 22.5086 13.7211 22.462 12.9236C22.4523 12.2922 22.3336 11.6672 22.1111 11.0761ZM21.0961 19.0195C21.0907 19.4997 21.0031 19.9755 20.837 20.4261C20.7118 20.7502 20.5202 21.0445 20.2745 21.29C20.0288 21.5356 19.7344 21.727 19.4103 21.852C18.9646 22.0173 18.4939 22.105 18.0186 22.1111C17.227 22.1478 17.0036 22.157 14.9736 22.157C12.942 22.157 12.7345 22.157 11.9278 22.1111C11.4527 22.1053 10.9822 22.0176 10.537 21.852C10.2117 21.7278 9.91612 21.5367 9.66936 21.2911C9.4226 21.0455 9.23015 20.7508 9.10445 20.4261C8.94066 19.9803 8.85305 19.5102 8.84529 19.0353C8.80945 18.2436 8.80112 18.0203 8.80112 15.9903C8.80112 13.9595 8.80112 13.752 8.84529 12.9445C8.85067 12.4645 8.93833 11.989 9.10445 11.5386C9.35862 10.8811 9.87945 10.3636 10.537 10.112C10.9824 9.94708 11.4528 9.85943 11.9278 9.85279C12.7203 9.81696 12.9428 9.80696 14.9736 9.80696C17.0045 9.80696 17.2128 9.80696 18.0186 9.85279C18.494 9.85851 18.9648 9.94619 19.4103 10.112C19.7344 10.2372 20.0287 10.4288 20.2744 10.6745C20.5201 10.9202 20.7117 11.2145 20.837 11.5386C21.0007 11.9844 21.0884 12.4546 21.0961 12.9295C21.132 13.722 21.1411 13.9445 21.1411 15.9753C21.1411 18.0053 21.1411 18.2236 21.1053 19.0203H21.0961V19.0195Z" fill="white"/>
</svg>
