<svg width="380" height="109" viewBox="0 0 380 109" fill="none" xmlns="http://www.w3.org/2000/svg">
<path d="M93.3267 15.0603H0V26.0967H11.2974L27.4086 75.761C28.422 78.9811 30.2971 81.7703 32.777 83.7462C35.2568 85.7221 38.22 86.7879 41.2602 86.7975H83.5028V75.761H41.2602C40.2507 75.7605 39.2659 75.4106 38.4398 74.7589C37.6136 74.1072 36.9862 73.1854 36.643 72.1189L34.3835 64.7245H79.9662C82.0981 64.721 84.1712 63.9385 85.8724 62.4951C87.5737 61.0517 88.8109 59.0257 89.3971 56.723L98.2386 22.0684C98.4383 21.3438 98.5028 20.5807 98.4282 19.8268C98.3535 19.0729 98.1414 18.3443 97.8049 17.6867C97.4684 17.029 97.0148 16.4564 96.4725 16.0045C95.9302 15.5526 95.3107 15.2311 94.6529 15.0603C94.2137 14.9799 93.7658 14.9799 93.3267 15.0603ZM79.8189 53.688H30.6996L21.7598 26.0967H86.7938L79.8189 53.688Z" fill="#82B440"/>
<path d="M41.7507 108.871C45.8199 108.871 49.1186 105.165 49.1186 100.593C49.1186 96.0217 45.8199 92.3158 41.7507 92.3158C37.6815 92.3158 34.3828 96.0217 34.3828 100.593C34.3828 105.165 37.6815 108.871 41.7507 108.871Z" fill="#82B440"/>
<path d="M71.2234 108.871C75.2925 108.871 78.5913 105.165 78.5913 100.593C78.5913 96.0217 75.2925 92.3158 71.2234 92.3158C67.1542 92.3158 63.8555 96.0217 63.8555 100.593C63.8555 105.165 67.1542 108.871 71.2234 108.871Z" fill="#82B440"/>
<path d="M116.051 15.1437H122.455L138.788 55.7889L155.087 15.1437H161.525L141.253 65H136.254L116.051 15.1437ZM113.963 15.1437H119.613L120.537 45.5506V65H113.963V15.1437ZM157.929 15.1437H163.579V65H157.005V45.5506L157.929 15.1437ZM184.638 61.1649L194.945 27.9502H201.725L186.864 70.7184C186.521 71.6315 186.065 72.6131 185.494 73.6632C184.946 74.7361 184.239 75.752 183.371 76.7107C182.504 77.6695 181.454 78.4457 180.221 79.0392C179.011 79.6556 177.561 79.9637 175.872 79.9637C175.37 79.9637 174.731 79.8952 173.955 79.7583C173.178 79.6213 172.631 79.5072 172.311 79.4159L172.277 74.2796C172.459 74.3024 172.745 74.3252 173.133 74.348C173.544 74.3937 173.829 74.4165 173.989 74.4165C175.427 74.4165 176.648 74.2225 177.653 73.8344C178.657 73.4692 179.502 72.8414 180.187 71.9511C180.894 71.0837 181.499 69.8852 182.001 68.3557L184.638 61.1649ZM177.071 27.9502L186.693 56.7135L188.336 63.3906L183.782 65.7191L170.154 27.9502H177.071Z" fill="#1C1C1C"/>
<path d="M227.886 15.1437H234.289L250.622 55.7889L266.921 15.1437H273.359L253.088 65H248.088L227.886 15.1437ZM225.797 15.1437H231.447L232.371 45.5506V65H225.797V15.1437ZM269.764 15.1437H275.413V65H268.839V45.5506L269.764 15.1437ZM307.909 58.6652V39.5925C307.909 38.1315 307.612 36.8645 307.019 35.7916C306.448 34.6959 305.581 33.8512 304.416 33.2577C303.252 32.6642 301.814 32.3674 300.102 32.3674C298.504 32.3674 297.1 32.6414 295.89 33.1892C294.703 33.7371 293.767 34.4562 293.082 35.3465C292.42 36.2368 292.089 37.1955 292.089 38.2228H285.754C285.754 36.8988 286.097 35.5862 286.782 34.285C287.467 32.9838 288.448 31.8081 289.727 30.7581C291.028 29.6851 292.58 28.8405 294.383 28.2242C296.21 27.585 298.241 27.2654 300.479 27.2654C303.172 27.2654 305.546 27.7219 307.601 28.6351C309.678 29.5482 311.299 30.9293 312.463 32.7783C313.65 34.6046 314.244 36.8988 314.244 39.661V56.9189C314.244 58.1516 314.347 59.4642 314.552 60.8567C314.78 62.2492 315.111 63.4477 315.545 64.4521V65H308.936C308.617 64.2695 308.366 63.2993 308.183 62.0894C308 60.8567 307.909 59.7153 307.909 58.6652ZM309.005 42.5373L309.073 46.9887H302.67C300.867 46.9887 299.257 47.1371 297.842 47.4339C296.427 47.7078 295.24 48.1301 294.281 48.7008C293.322 49.2715 292.591 49.9906 292.089 50.8581C291.587 51.7027 291.336 52.6957 291.336 53.8371C291.336 55.0014 291.598 56.0629 292.123 57.0216C292.649 57.9804 293.436 58.7451 294.486 59.3158C295.559 59.8637 296.872 60.1376 298.424 60.1376C300.364 60.1376 302.076 59.7267 303.56 58.9049C305.044 58.0831 306.22 57.0787 307.087 55.8916C307.978 54.7046 308.457 53.5518 308.525 52.4332L311.23 55.4807C311.071 56.4395 310.637 57.501 309.929 58.6652C309.222 59.8295 308.274 60.948 307.087 62.021C305.923 63.071 304.53 63.9499 302.91 64.6576C301.312 65.3424 299.508 65.6848 297.499 65.6848C294.988 65.6848 292.786 65.194 290.891 64.2124C289.019 63.2308 287.558 61.9182 286.508 60.2746C285.481 58.6082 284.967 56.7477 284.967 54.6932C284.967 52.7071 285.355 50.9608 286.131 49.4542C286.907 47.9247 288.026 46.6577 289.487 45.6533C290.948 44.626 292.706 43.8499 294.76 43.3249C296.815 42.7998 299.109 42.5373 301.643 42.5373H309.005ZM330.543 33.7713V65H324.208V27.9502H330.372L330.543 33.7713ZM342.117 27.7448L342.082 33.6344C341.557 33.5202 341.055 33.4518 340.576 33.4289C340.119 33.3833 339.594 33.3604 339.001 33.3604C337.54 33.3604 336.25 33.5887 335.131 34.0453C334.013 34.5018 333.065 35.141 332.289 35.9628C331.513 36.7846 330.897 37.7662 330.44 38.9076C330.006 40.0262 329.721 41.2589 329.584 42.6058L327.804 43.633C327.804 41.3959 328.02 39.2957 328.454 37.3325C328.911 35.3693 329.607 33.6344 330.543 32.1277C331.479 30.5983 332.666 29.4112 334.104 28.5666C335.565 27.6991 337.3 27.2654 339.309 27.2654C339.765 27.2654 340.29 27.3225 340.884 27.4366C341.478 27.5279 341.888 27.6306 342.117 27.7448ZM365.196 27.9502V32.8126H345.164V27.9502H365.196ZM351.944 18.9446H358.279V55.8232C358.279 57.0787 358.473 58.0261 358.861 58.6652C359.249 59.3044 359.751 59.7267 360.368 59.9322C360.984 60.1376 361.646 60.2404 362.354 60.2404C362.879 60.2404 363.427 60.1947 363.997 60.1034C364.591 59.9893 365.036 59.898 365.333 59.8295L365.367 65C364.865 65.1598 364.203 65.3082 363.381 65.4451C362.582 65.6049 361.612 65.6848 360.47 65.6848C358.918 65.6848 357.491 65.3767 356.19 64.7603C354.889 64.144 353.85 63.1167 353.074 61.6785C352.321 60.2175 351.944 58.2543 351.944 55.7889V18.9446Z" fill="#82B440"/>
<path d="M127.208 89.5795C127.208 91.3437 126.889 92.8683 126.252 94.1534C125.615 95.4384 124.741 96.4294 123.63 97.1264C122.519 97.8234 121.251 98.1718 119.824 98.1718C118.398 98.1718 117.129 97.8234 116.018 97.1264C114.907 96.4294 114.033 95.4384 113.396 94.1534C112.759 92.8683 112.441 91.3437 112.441 89.5795C112.441 87.8153 112.759 86.2907 113.396 85.0056C114.033 83.7206 114.907 82.7296 116.018 82.0326C117.129 81.3357 118.398 80.9872 119.824 80.9872C121.251 80.9872 122.519 81.3357 123.63 82.0326C124.741 82.7296 125.615 83.7206 126.252 85.0056C126.889 86.2907 127.208 87.8153 127.208 89.5795ZM125.247 89.5795C125.247 88.1311 125.005 86.9087 124.521 85.9123C124.041 84.9158 123.391 84.1617 122.568 83.6498C121.752 83.138 120.837 82.8821 119.824 82.8821C118.811 82.8821 117.894 83.138 117.072 83.6498C116.255 84.1617 115.604 84.9158 115.12 85.9123C114.64 86.9087 114.401 88.1311 114.401 89.5795C114.401 91.0279 114.64 92.2503 115.12 93.2468C115.604 94.2432 116.255 94.9974 117.072 95.5092C117.894 96.021 118.811 96.277 119.824 96.277C120.837 96.277 121.752 96.021 122.568 95.5092C123.391 94.9974 124.041 94.2432 124.521 93.2468C125.005 92.2503 125.247 91.0279 125.247 89.5795ZM132.395 90.3963V97.9431H130.467V85.3977H132.329V87.3579H132.493C132.787 86.7208 133.233 86.209 133.832 85.8224C134.431 85.4304 135.204 85.2343 136.152 85.2343C137.001 85.2343 137.745 85.4086 138.382 85.7571C139.019 86.1001 139.514 86.6228 139.868 87.3252C140.222 88.0222 140.399 88.9043 140.399 89.9716V97.9431H138.471V90.1022C138.471 89.1167 138.216 88.3489 137.704 87.799C137.192 87.2436 136.489 86.9659 135.596 86.9659C134.981 86.9659 134.431 87.0993 133.947 87.3661C133.467 87.6329 133.089 88.0222 132.811 88.5341C132.534 89.0459 132.395 89.6666 132.395 90.3963ZM149.296 98.2045C148.087 98.2045 147.045 97.9377 146.168 97.4041C145.297 96.865 144.624 96.1136 144.151 95.1498C143.682 94.1806 143.448 93.0535 143.448 91.7684C143.448 90.4834 143.682 89.3508 144.151 88.3707C144.624 87.3851 145.283 86.6174 146.127 86.0674C146.977 85.512 147.968 85.2343 149.1 85.2343C149.754 85.2343 150.399 85.3432 151.036 85.561C151.673 85.7788 152.253 86.1328 152.776 86.6228C153.298 87.1074 153.715 87.75 154.025 88.5504C154.336 89.3508 154.491 90.3364 154.491 91.5071V92.3238H144.82V90.6576H152.531C152.531 89.9498 152.389 89.3181 152.106 88.7627C151.828 88.2073 151.431 87.769 150.913 87.4478C150.402 87.1265 149.797 86.9659 149.1 86.9659C148.332 86.9659 147.668 87.1565 147.107 87.5376C146.552 87.9133 146.125 88.4034 145.825 89.0078C145.526 89.6122 145.376 90.2601 145.376 90.9517V92.0625C145.376 93.0099 145.539 93.8131 145.866 94.4719C146.198 95.1253 146.658 95.6235 147.246 95.9666C147.834 96.3042 148.518 96.473 149.296 96.473C149.803 96.473 150.26 96.4022 150.668 96.2606C151.082 96.1136 151.439 95.8958 151.738 95.6072C152.038 95.3132 152.269 94.9484 152.433 94.5127L154.295 95.0355C154.099 95.6671 153.769 96.2225 153.307 96.7017C152.844 97.1754 152.272 97.5457 151.591 97.8125C150.911 98.0738 150.146 98.2045 149.296 98.2045ZM169.218 98.2045C168.042 98.2045 167.029 97.9268 166.18 97.3714C165.331 96.816 164.677 96.051 164.22 95.0763C163.762 94.1016 163.534 92.9881 163.534 91.7358C163.534 90.4616 163.768 89.3372 164.236 88.3625C164.71 87.3824 165.369 86.6174 166.213 86.0674C167.062 85.512 168.053 85.2343 169.186 85.2343C170.068 85.2343 170.863 85.3977 171.571 85.7244C172.279 86.0511 172.858 86.5085 173.31 87.0966C173.762 87.6846 174.043 88.3707 174.152 89.1548H172.224C172.077 88.5831 171.75 88.0767 171.244 87.6356C170.743 87.1891 170.068 86.9659 169.218 86.9659C168.467 86.9659 167.808 87.1619 167.242 87.5539C166.681 87.9405 166.243 88.4878 165.927 89.1956C165.616 89.898 165.461 90.723 165.461 91.6704C165.461 92.6396 165.614 93.4836 165.919 94.2024C166.229 94.9211 166.665 95.4792 167.225 95.8767C167.792 96.2742 168.456 96.473 169.218 96.473C169.719 96.473 170.174 96.3859 170.582 96.2116C170.991 96.0374 171.337 95.7869 171.62 95.4602C171.903 95.1335 172.104 94.7414 172.224 94.2841H174.152C174.043 95.0246 173.773 95.6916 173.343 96.2851C172.918 96.8732 172.355 97.3415 171.652 97.6899C170.955 98.033 170.144 98.2045 169.218 98.2045ZM180.776 98.2372C179.981 98.2372 179.26 98.0874 178.612 97.788C177.964 97.483 177.449 97.0447 177.068 96.473C176.687 95.8958 176.496 95.1988 176.496 94.3821C176.496 93.6633 176.638 93.0807 176.921 92.6342C177.204 92.1823 177.583 91.8283 178.056 91.5724C178.53 91.3165 179.053 91.1259 179.625 91.0007C180.202 90.87 180.782 90.7665 181.364 90.6903C182.127 90.5923 182.745 90.5188 183.218 90.4698C183.698 90.4153 184.046 90.3255 184.264 90.2002C184.487 90.075 184.599 89.8572 184.599 89.5468V89.4815C184.599 88.6756 184.378 88.0494 183.937 87.6029C183.501 87.1565 182.84 86.9332 181.952 86.9332C181.032 86.9332 180.311 87.1347 179.788 87.5376C179.265 87.9405 178.898 88.3707 178.685 88.8281L176.856 88.1747C177.182 87.4124 177.618 86.8189 178.163 86.3941C178.713 85.964 179.311 85.6645 179.959 85.4957C180.613 85.3215 181.255 85.2343 181.887 85.2343C182.29 85.2343 182.753 85.2833 183.276 85.3814C183.804 85.4739 184.313 85.6672 184.803 85.9613C185.298 86.2553 185.709 86.6991 186.036 87.2926C186.363 87.8861 186.526 88.6811 186.526 89.6775V97.9431H184.599V96.2443H184.501C184.37 96.5165 184.152 96.8078 183.847 97.1182C183.542 97.4286 183.137 97.6927 182.63 97.9105C182.124 98.1283 181.506 98.2372 180.776 98.2372ZM181.07 96.5056C181.833 96.5056 182.475 96.3559 182.998 96.0564C183.526 95.7569 183.923 95.3703 184.19 94.8966C184.463 94.4229 184.599 93.9247 184.599 93.402V91.6377C184.517 91.7358 184.337 91.8256 184.06 91.9073C183.787 91.9835 183.472 92.0516 183.112 92.1115C182.758 92.1659 182.412 92.2149 182.075 92.2585C181.743 92.2966 181.473 92.3293 181.266 92.3565C180.765 92.4218 180.297 92.528 179.861 92.675C179.431 92.8166 179.083 93.0317 178.816 93.3203C178.555 93.6034 178.424 93.99 178.424 94.4801C178.424 95.1498 178.672 95.6562 179.167 95.9993C179.668 96.3368 180.302 96.5056 181.07 96.5056ZM190.159 97.9431V85.3977H192.022V87.2926H192.152C192.381 86.6718 192.795 86.1682 193.394 85.7816C193.993 85.395 194.668 85.2017 195.419 85.2017C195.561 85.2017 195.738 85.2044 195.95 85.2098C196.163 85.2153 196.323 85.2234 196.432 85.2343V87.1946C196.367 87.1782 196.217 87.1537 195.983 87.1211C195.754 87.0829 195.512 87.0639 195.256 87.0639C194.646 87.0639 194.102 87.1918 193.622 87.4478C193.149 87.6982 192.773 88.0467 192.495 88.4932C192.223 88.9343 192.087 89.4379 192.087 90.0042V97.9431H190.159ZM205.074 85.3977V87.0312H198.573V85.3977H205.074ZM200.468 82.392H202.395V94.3494C202.395 94.8939 202.474 95.3023 202.632 95.5745C202.795 95.8413 203.002 96.021 203.253 96.1136C203.509 96.2007 203.778 96.2443 204.061 96.2443C204.274 96.2443 204.448 96.2334 204.584 96.2116C204.72 96.1844 204.829 96.1626 204.911 96.1463L205.303 97.8778C205.172 97.9268 204.99 97.9758 204.756 98.0248C204.521 98.0793 204.225 98.1065 203.865 98.1065C203.321 98.1065 202.787 97.9894 202.264 97.7553C201.747 97.5212 201.317 97.1645 200.974 96.6853C200.636 96.2062 200.468 95.6018 200.468 94.8721V82.392ZM214.672 97.9431V85.3977H216.6V97.9431H214.672ZM215.653 83.3068C215.277 83.3068 214.953 83.1788 214.681 82.9229C214.414 82.667 214.28 82.3593 214.28 82C214.28 81.6406 214.414 81.3329 214.681 81.077C214.953 80.8211 215.277 80.6931 215.653 80.6931C216.028 80.6931 216.349 80.8211 216.616 81.077C216.889 81.3329 217.025 81.6406 217.025 82C217.025 82.3593 216.889 82.667 216.616 82.9229C216.349 83.1788 216.028 83.3068 215.653 83.3068ZM229.132 88.2073L227.4 88.6974C227.291 88.4088 227.131 88.1284 226.918 87.8561C226.711 87.5784 226.428 87.3498 226.069 87.1701C225.71 86.9904 225.249 86.9005 224.689 86.9005C223.921 86.9005 223.281 87.0775 222.769 87.4314C222.263 87.7799 222.01 88.2237 222.01 88.7627C222.01 89.2419 222.184 89.6203 222.532 89.898C222.881 90.1757 223.425 90.4072 224.166 90.5923L226.028 91.0497C227.15 91.3219 227.986 91.7385 228.536 92.2993C229.085 92.8547 229.36 93.5707 229.36 94.4474C229.36 95.1662 229.154 95.8087 228.74 96.375C228.331 96.9413 227.76 97.3877 227.025 97.7145C226.289 98.0412 225.435 98.2045 224.46 98.2045C223.18 98.2045 222.121 97.9268 221.283 97.3714C220.444 96.816 219.913 96.0047 219.69 94.9375L221.52 94.4801C221.694 95.1553 222.023 95.6617 222.508 95.9993C222.998 96.3368 223.638 96.5056 224.427 96.5056C225.326 96.5056 226.039 96.3151 226.567 95.9339C227.101 95.5473 227.368 95.0845 227.368 94.5454C227.368 94.1098 227.215 93.745 226.91 93.451C226.605 93.1515 226.137 92.9282 225.505 92.7812L223.414 92.2912C222.266 92.0189 221.422 91.5969 220.882 91.0252C220.349 90.448 220.082 89.7265 220.082 88.8608C220.082 88.1529 220.281 87.5267 220.678 86.9822C221.081 86.4377 221.628 86.0103 222.32 85.6999C223.017 85.3895 223.806 85.2343 224.689 85.2343C225.93 85.2343 226.905 85.5066 227.613 86.0511C228.326 86.5956 228.832 87.3144 229.132 88.2073ZM240.888 90.3963V97.9431H238.961V85.3977H240.823V87.3579H240.986C241.28 86.7208 241.727 86.209 242.326 85.8224C242.925 85.4304 243.698 85.2343 244.645 85.2343C245.495 85.2343 246.238 85.4086 246.875 85.7571C247.512 86.1001 248.008 86.6228 248.362 87.3252C248.716 88.0222 248.893 88.9043 248.893 89.9716V97.9431H246.965V90.1022C246.965 89.1167 246.709 88.3489 246.197 87.799C245.685 87.2436 244.983 86.9659 244.09 86.9659C243.475 86.9659 242.925 87.0993 242.44 87.3661C241.961 87.6329 241.583 88.0222 241.305 88.5341C241.027 89.0459 240.888 89.6666 240.888 90.3963ZM257.626 98.2045C256.494 98.2045 255.5 97.935 254.645 97.3959C253.796 96.8569 253.132 96.1027 252.652 95.1335C252.179 94.1643 251.942 93.0317 251.942 91.7358C251.942 90.4289 252.179 89.2882 252.652 88.3135C253.132 87.3389 253.796 86.582 254.645 86.0429C255.5 85.5039 256.494 85.2343 257.626 85.2343C258.759 85.2343 259.75 85.5039 260.599 86.0429C261.454 86.582 262.119 87.3389 262.592 88.3135C263.072 89.2882 263.311 90.4289 263.311 91.7358C263.311 93.0317 263.072 94.1643 262.592 95.1335C262.119 96.1027 261.454 96.8569 260.599 97.3959C259.75 97.935 258.759 98.2045 257.626 98.2045ZM257.626 96.473C258.487 96.473 259.195 96.2524 259.75 95.8114C260.305 95.3703 260.717 94.7904 260.983 94.0717C261.25 93.3529 261.384 92.5743 261.384 91.7358C261.384 90.8972 261.25 90.1158 260.983 89.3917C260.717 88.6675 260.305 88.0821 259.75 87.6356C259.195 87.1891 258.487 86.9659 257.626 86.9659C256.766 86.9659 256.058 87.1891 255.503 87.6356C254.947 88.0821 254.536 88.6675 254.27 89.3917C254.003 90.1158 253.869 90.8972 253.869 91.7358C253.869 92.5743 254.003 93.3529 254.27 94.0717C254.536 94.7904 254.947 95.3703 255.503 95.8114C256.058 96.2524 256.766 96.473 257.626 96.473ZM271.824 85.3977V87.0312H265.323V85.3977H271.824ZM267.218 82.392H269.145V94.3494C269.145 94.8939 269.224 95.3023 269.382 95.5745C269.546 95.8413 269.753 96.021 270.003 96.1136C270.259 96.2007 270.529 96.2443 270.812 96.2443C271.024 96.2443 271.198 96.2334 271.334 96.2116C271.471 96.1844 271.579 96.1626 271.661 96.1463L272.053 97.8778C271.922 97.9268 271.74 97.9758 271.506 98.0248C271.272 98.0793 270.975 98.1065 270.616 98.1065C270.071 98.1065 269.538 97.9894 269.015 97.7553C268.498 97.5212 268.067 97.1645 267.724 96.6853C267.387 96.2062 267.218 95.6018 267.218 94.8721V82.392ZM286.683 98.2045C285.474 98.2045 284.431 97.9377 283.554 97.4041C282.683 96.865 282.011 96.1136 281.537 95.1498C281.069 94.1806 280.835 93.0535 280.835 91.7684C280.835 90.4834 281.069 89.3508 281.537 88.3707C282.011 87.3851 282.67 86.6174 283.514 86.0674C284.363 85.512 285.354 85.2343 286.487 85.2343C287.14 85.2343 287.785 85.3432 288.422 85.561C289.059 85.7788 289.639 86.1328 290.162 86.6228C290.685 87.1074 291.101 87.75 291.412 88.5504C291.722 89.3508 291.877 90.3364 291.877 91.5071V92.3238H282.207V90.6576H289.917C289.917 89.9498 289.775 89.3181 289.492 88.7627C289.215 88.2073 288.817 87.769 288.3 87.4478C287.788 87.1265 287.184 86.9659 286.487 86.9659C285.719 86.9659 285.055 87.1565 284.494 87.5376C283.938 87.9133 283.511 88.4034 283.211 89.0078C282.912 89.6122 282.762 90.2601 282.762 90.9517V92.0625C282.762 93.0099 282.926 93.8131 283.252 94.4719C283.584 95.1253 284.045 95.6235 284.633 95.9666C285.221 96.3042 285.904 96.473 286.683 96.473C287.189 96.473 287.646 96.4022 288.055 96.2606C288.469 96.1136 288.825 95.8958 289.125 95.6072C289.424 95.3132 289.656 94.9484 289.819 94.5127L291.681 95.0355C291.485 95.6671 291.156 96.2225 290.693 96.7017C290.23 97.1754 289.658 97.5457 288.978 97.8125C288.297 98.0738 287.532 98.2045 286.683 98.2045ZM296.852 90.3963V97.9431H294.924V85.3977H296.787V87.3579H296.95C297.244 86.7208 297.691 86.209 298.289 85.8224C298.888 85.4304 299.662 85.2343 300.609 85.2343C301.459 85.2343 302.202 85.4086 302.839 85.7571C303.476 86.1001 303.971 86.6228 304.325 87.3252C304.679 88.0222 304.856 88.9043 304.856 89.9716V97.9431H302.929V90.1022C302.929 89.1167 302.673 88.3489 302.161 87.799C301.649 87.2436 300.947 86.9659 300.054 86.9659C299.438 86.9659 298.888 87.0993 298.404 87.3661C297.925 87.6329 297.546 88.0222 297.269 88.5341C296.991 89.0459 296.852 89.6666 296.852 90.3963ZM313.59 98.2045C312.458 98.2045 311.464 97.935 310.609 97.3959C309.76 96.8569 309.095 96.1027 308.616 95.1335C308.142 94.1643 307.905 93.0317 307.905 91.7358C307.905 90.4289 308.142 89.2882 308.616 88.3135C309.095 87.3389 309.76 86.582 310.609 86.0429C311.464 85.5039 312.458 85.2343 313.59 85.2343C314.723 85.2343 315.714 85.5039 316.563 86.0429C317.418 86.582 318.082 87.3389 318.556 88.3135C319.035 89.2882 319.275 90.4289 319.275 91.7358C319.275 93.0317 319.035 94.1643 318.556 95.1335C318.082 96.1027 317.418 96.8569 316.563 97.3959C315.714 97.935 314.723 98.2045 313.59 98.2045ZM313.59 96.473C314.45 96.473 315.158 96.2524 315.714 95.8114C316.269 95.3703 316.68 94.7904 316.947 94.0717C317.214 93.3529 317.347 92.5743 317.347 91.7358C317.347 90.8972 317.214 90.1158 316.947 89.3917C316.68 88.6675 316.269 88.0821 315.714 87.6356C315.158 87.1891 314.45 86.9659 313.59 86.9659C312.73 86.9659 312.022 87.1891 311.467 87.6356C310.911 88.0821 310.5 88.6675 310.233 89.3917C309.966 90.1158 309.833 90.8972 309.833 91.7358C309.833 92.5743 309.966 93.3529 310.233 94.0717C310.5 94.7904 310.911 95.3703 311.467 95.8114C312.022 96.2524 312.73 96.473 313.59 96.473ZM330.238 92.8139V85.3977H332.166V97.9431H330.238V95.8196H330.108C329.814 96.4566 329.356 96.9984 328.736 97.4449C328.115 97.886 327.331 98.1065 326.383 98.1065C325.599 98.1065 324.902 97.935 324.292 97.5919C323.683 97.2435 323.203 96.7207 322.855 96.0238C322.506 95.3213 322.332 94.4365 322.332 93.3693V85.3977H324.26V93.2386C324.26 94.1534 324.516 94.883 325.027 95.4275C325.545 95.972 326.204 96.2443 327.004 96.2443C327.483 96.2443 327.971 96.1218 328.466 95.8767C328.967 95.6317 329.386 95.256 329.724 94.7496C330.067 94.2432 330.238 93.598 330.238 92.8139ZM340.875 102.909C339.944 102.909 339.144 102.789 338.474 102.55C337.804 102.316 337.246 102.005 336.8 101.619C336.359 101.237 336.007 100.829 335.746 100.393L337.282 99.3153C337.456 99.544 337.676 99.8054 337.943 100.099C338.21 100.399 338.575 100.658 339.038 100.875C339.506 101.099 340.118 101.21 340.875 101.21C341.888 101.21 342.724 100.965 343.383 100.475C344.042 99.985 344.371 99.2173 344.371 98.1718V95.6235H344.208C344.066 95.8522 343.865 96.1354 343.603 96.473C343.347 96.8051 342.977 97.1019 342.493 97.3632C342.013 97.6192 341.365 97.7471 340.549 97.7471C339.536 97.7471 338.627 97.5075 337.821 97.0284C337.02 96.5492 336.386 95.8522 335.918 94.9375C335.455 94.0227 335.223 92.9119 335.223 91.6051C335.223 90.32 335.449 89.2011 335.901 88.2482C336.353 87.2899 336.982 86.5493 337.788 86.0266C338.594 85.4984 339.525 85.2343 340.581 85.2343C341.398 85.2343 342.046 85.3705 342.525 85.6427C343.01 85.9095 343.38 86.2145 343.636 86.5575C343.897 86.8951 344.099 87.1728 344.24 87.3906H344.436V85.3977H346.299V98.3025C346.299 99.3806 346.054 100.257 345.564 100.932C345.079 101.613 344.426 102.111 343.603 102.427C342.787 102.748 341.877 102.909 340.875 102.909ZM340.81 96.0156C341.583 96.0156 342.237 95.8386 342.77 95.4847C343.304 95.1308 343.709 94.6216 343.987 93.9574C344.265 93.2931 344.404 92.4981 344.404 91.5724C344.404 90.6685 344.268 89.8708 343.995 89.1793C343.723 88.4878 343.32 87.946 342.787 87.5539C342.253 87.1619 341.594 86.9659 340.81 86.9659C339.993 86.9659 339.313 87.1728 338.768 87.5866C338.229 88.0004 337.823 88.5558 337.551 89.2528C337.284 89.9498 337.151 90.723 337.151 91.5724C337.151 92.4436 337.287 93.2141 337.559 93.8838C337.837 94.5481 338.245 95.0709 338.784 95.452C339.329 95.8277 340.004 96.0156 340.81 96.0156ZM351.87 90.3963V97.9431H349.942V81.2159H351.87V87.3579H352.033C352.327 86.71 352.768 86.1954 353.356 85.8142C353.95 85.4276 354.739 85.2343 355.725 85.2343C356.58 85.2343 357.328 85.4059 357.971 85.7489C358.613 86.0865 359.112 86.6065 359.465 87.3089C359.825 88.0059 360.005 88.8934 360.005 89.9716V97.9431H358.077V90.1022C358.077 89.1058 357.818 88.3353 357.301 87.7908C356.789 87.2408 356.079 86.9659 355.169 86.9659C354.538 86.9659 353.971 87.0993 353.47 87.3661C352.975 87.6329 352.583 88.0222 352.294 88.5341C352.011 89.0459 351.87 89.6666 351.87 90.3963ZM366.194 81.2159L366.031 93.2386H364.136L363.973 81.2159H366.194ZM365.083 98.0738C364.68 98.0738 364.335 97.9295 364.046 97.6409C363.758 97.3524 363.613 97.0066 363.613 96.6037C363.613 96.2007 363.758 95.855 364.046 95.5664C364.335 95.2778 364.68 95.1335 365.083 95.1335C365.486 95.1335 365.832 95.2778 366.121 95.5664C366.409 95.855 366.554 96.2007 366.554 96.6037C366.554 96.8705 366.486 97.1155 366.349 97.3387C366.219 97.562 366.042 97.7417 365.819 97.8778C365.601 98.0085 365.356 98.0738 365.083 98.0738Z" fill="black" fill-opacity="0.8"/>
</svg>
