<svg width="187" height="51" viewBox="0 0 187 51" fill="none" xmlns="http://www.w3.org/2000/svg">
<path d="M44.6107 8.49726H4.24866V12.7459H9.13459L16.1024 31.8648C16.5406 33.1044 17.3516 34.1782 18.4241 34.9388C19.4966 35.6994 20.7781 36.1097 22.0929 36.1134H40.3621V31.8648H22.0929C21.6564 31.8646 21.2304 31.7299 20.8731 31.479C20.5158 31.2282 20.2445 30.8733 20.0961 30.4627L19.1189 27.6161H38.8326C39.7546 27.6148 40.6511 27.3136 41.3869 26.7579C42.1227 26.2023 42.6577 25.4223 42.9113 24.5359L46.7351 11.1951C46.8214 10.9162 46.8493 10.6224 46.817 10.3322C46.7848 10.042 46.693 9.7615 46.5475 9.50833C46.402 9.25516 46.2058 9.0347 45.9712 8.86074C45.7367 8.68678 45.4688 8.56304 45.1843 8.49726C44.9944 8.46633 44.8007 8.46633 44.6107 8.49726ZM38.7689 23.3675H17.5257L13.6594 12.7459H41.7854L38.7689 23.3675Z" fill="#82B440"/>
<path d="M22.3054 44.6107C24.0652 44.6107 25.4919 43.1841 25.4919 41.4242C25.4919 39.6644 24.0652 38.2378 22.3054 38.2378C20.5455 38.2378 19.1189 39.6644 19.1189 41.4242C19.1189 43.1841 20.5455 44.6107 22.3054 44.6107Z" fill="#82B440"/>
<path d="M35.0513 44.6107C36.8111 44.6107 38.2378 43.1841 38.2378 41.4242C38.2378 39.6644 36.8111 38.2378 35.0513 38.2378C33.2914 38.2378 31.8648 39.6644 31.8648 41.4242C31.8648 43.1841 33.2914 44.6107 35.0513 44.6107Z" fill="#82B440"/>
<path d="M55.0856 12.0244H58.4207L66.9279 33.1943L75.4173 12.0244H78.7702L68.212 37.9918H65.6082L55.0856 12.0244ZM53.9977 12.0244H56.9405L57.422 27.8617V37.9918H53.9977V12.0244ZM76.8976 12.0244H79.8403V37.9918H76.416V27.8617L76.8976 12.0244ZM90.8087 35.9943L96.177 18.6946H99.7082L91.968 40.9702C91.7896 41.4458 91.5518 41.9571 91.2546 42.504C90.9692 43.0628 90.6006 43.5919 90.1488 44.0913C89.697 44.5907 89.1501 44.9949 88.508 45.3041C87.8778 45.6251 87.1228 45.7856 86.243 45.7856C85.9814 45.7856 85.6485 45.7499 85.2442 45.6786C84.84 45.6073 84.5546 45.5478 84.3882 45.5003L84.3703 42.825C84.4655 42.8369 84.6141 42.8488 84.8162 42.8607C85.0302 42.8845 85.1788 42.8964 85.2621 42.8964C86.0111 42.8964 86.6472 42.7953 87.1704 42.5932C87.6936 42.403 88.1335 42.076 88.4902 41.6123C88.8588 41.1605 89.1738 40.5362 89.4354 39.7396L90.8087 35.9943ZM86.8672 18.6946L91.8788 33.6758L92.7348 37.1536L90.3628 38.3664L83.2646 18.6946H86.8672Z" fill="#ECECEC"/>
<path d="M113.334 12.0244H116.669L125.176 33.1943L133.666 12.0244H137.019L126.46 37.9918H123.857L113.334 12.0244ZM112.246 12.0244H115.189L115.67 27.8617V37.9918H112.246V12.0244ZM135.146 12.0244H138.089V37.9918H134.664V27.8617L135.146 12.0244ZM155.014 34.6924V24.7584C155.014 23.9975 154.859 23.3376 154.55 22.7788C154.253 22.208 153.801 21.7681 153.195 21.459C152.588 21.1499 151.839 20.9953 150.948 20.9953C150.115 20.9953 149.384 21.138 148.754 21.4233C148.136 21.7087 147.648 22.0832 147.291 22.5469C146.947 23.0106 146.774 23.51 146.774 24.045H143.475C143.475 23.3554 143.653 22.6718 144.01 21.994C144.367 21.3163 144.878 20.704 145.544 20.157C146.221 19.5982 147.03 19.1583 147.969 18.8373C148.92 18.5044 149.979 18.3379 151.144 18.3379C152.547 18.3379 153.783 18.5757 154.853 19.0513C155.935 19.5269 156.78 20.2462 157.386 21.2093C158.004 22.1605 158.313 23.3554 158.313 24.7941V33.7828C158.313 34.4249 158.367 35.1085 158.474 35.8338C158.593 36.5591 158.765 37.1833 158.991 37.7065V37.9918H155.549C155.382 37.6113 155.252 37.106 155.157 36.4759C155.061 35.8338 155.014 35.2393 155.014 34.6924ZM155.585 26.2922L155.62 28.6107H152.285C151.346 28.6107 150.508 28.688 149.77 28.8426C149.033 28.9853 148.415 29.2052 147.916 29.5025C147.416 29.7997 147.036 30.1742 146.774 30.6261C146.513 31.066 146.382 31.5832 146.382 32.1777C146.382 32.7841 146.519 33.3369 146.792 33.8363C147.066 34.3357 147.476 34.734 148.023 35.0312C148.581 35.3166 149.265 35.4593 150.074 35.4593C151.084 35.4593 151.976 35.2453 152.749 34.8172C153.522 34.3892 154.134 33.866 154.586 33.2478C155.05 32.6295 155.299 32.0291 155.335 31.4465L156.744 33.0338C156.661 33.5331 156.435 34.086 156.066 34.6924C155.698 35.2988 155.204 35.8814 154.586 36.4402C153.979 36.9871 153.254 37.4449 152.41 37.8135C151.578 38.1702 150.638 38.3485 149.592 38.3485C148.284 38.3485 147.137 38.0929 146.15 37.5816C145.175 37.0704 144.414 36.3867 143.867 35.5306C143.332 34.6627 143.065 33.6936 143.065 32.6236C143.065 31.5891 143.267 30.6796 143.671 29.8948C144.075 29.0982 144.658 28.4383 145.419 27.9152C146.18 27.3801 147.095 26.9759 148.165 26.7024C149.235 26.4289 150.43 26.2922 151.75 26.2922H155.585ZM166.803 21.7265V37.9918H163.503V18.6946H166.713L166.803 21.7265ZM172.831 18.5876L172.813 21.6552C172.54 21.5957 172.278 21.5601 172.028 21.5482C171.79 21.5244 171.517 21.5125 171.208 21.5125C170.447 21.5125 169.775 21.6314 169.193 21.8692C168.61 22.107 168.116 22.4399 167.712 22.8679C167.308 23.296 166.987 23.8072 166.749 24.4017C166.523 24.9843 166.375 25.6264 166.303 26.3279L165.376 26.8629C165.376 25.6977 165.489 24.6039 165.715 23.5813C165.953 22.5588 166.315 21.6552 166.803 20.8704C167.29 20.0738 167.908 19.4555 168.657 19.0156C169.418 18.5638 170.322 18.3379 171.368 18.3379C171.606 18.3379 171.88 18.3676 172.189 18.4271C172.498 18.4746 172.712 18.5281 172.831 18.5876ZM184.851 18.6946V21.2271H174.418V18.6946H184.851ZM177.949 14.0041H181.249V33.2121C181.249 33.866 181.35 34.3595 181.552 34.6924C181.754 35.0253 182.016 35.2453 182.337 35.3523C182.658 35.4593 183.003 35.5128 183.371 35.5128C183.645 35.5128 183.93 35.489 184.227 35.4414C184.536 35.382 184.768 35.3344 184.923 35.2988L184.941 37.9918C184.679 38.0751 184.334 38.1523 183.906 38.2237C183.49 38.3069 182.985 38.3485 182.39 38.3485C181.582 38.3485 180.839 38.188 180.161 37.867C179.483 37.546 178.942 37.0109 178.538 36.2618C178.146 35.5009 177.949 34.4784 177.949 33.1943V14.0041Z" fill="#82B440"/>
</svg>
