<svg width="48" height="29" viewBox="0 0 48 29" fill="none" xmlns="http://www.w3.org/2000/svg">
<path d="M48 0C32.727 0.00182898 17.4541 0.00020685 2.18115 5.29885e-05C1.79907 0.000155346 1.42372 0.0836049 1.09265 0.242053C0.761582 0.400501 0.486408 0.628391 0.294657 0.902924C0.102907 1.17746 0.00130345 1.48901 1.24581e-05 1.8064C-0.00127853 2.1238 0.0977878 2.43591 0.287301 2.71151L8.39724 14.4998L0.287301 26.2882C0.0977878 26.5638 -0.00127853 26.8759 1.24581e-05 27.1933C0.00130345 27.5107 0.102907 27.8222 0.294657 28.0967C0.486408 28.3713 0.761582 28.5992 1.09265 28.7576C1.42372 28.9161 1.79907 28.9995 2.18115 28.9996C17.4541 28.9998 32.727 28.9992 48 29.0001L48 0Z" fill="#82B440"/>
</svg>
