<svg width="40" height="40" viewBox="0 0 40 40" fill="none" xmlns="http://www.w3.org/2000/svg">
<path d="M40 40L0 40L3.49691e-06 -3.49691e-06L40 0L40 40Z" fill="#C8C8C8"/>
<path d="M16 23C17.628 23 19 21.628 19 20C19 18.372 17.628 17 16 17C14.372 17 13 18.372 13 20C13 21.628 14.372 23 16 23Z" fill="#FAFAFA"/>
<path d="M16 26L24 26C27.296 26 29.982 23.318 30 20.014L30 19.972C29.99 18.3864 29.3537 16.869 28.2299 15.7504C27.106 14.6317 25.5857 14.0026 24 14L16 14C12.691 14 10 16.691 10 20C10 23.309 12.691 26 16 26ZM16 16L24 16C25.0587 16.0016 26.0736 16.4221 26.8232 17.1698C27.5727 17.9174 27.9958 18.9314 28 19.99C27.996 22.201 26.202 24 24 24L16 24C13.794 24 12 22.206 12 20C12 17.794 13.794 16 16 16Z" fill="#FAFAFA"/>
</svg>
