<svg width="40" height="40" viewBox="0 0 40 40" fill="none" xmlns="http://www.w3.org/2000/svg">
<path d="M0 0H40V40H0V0Z" fill="#C8C8C8"/>
<path d="M24 17C22.372 17 21 18.372 21 20C21 21.628 22.372 23 24 23C25.628 23 27 21.628 27 20C27 18.372 25.628 17 24 17Z" fill="#FAFAFA"/>
<path d="M24 14H16C12.704 14 10.018 16.682 10 19.986V20.028C10.01 21.6136 10.6463 23.131 11.7701 24.2496C12.894 25.3683 14.4143 25.9974 16 26H24C27.309 26 30 23.309 30 20C30 16.691 27.309 14 24 14ZM24 24H16C14.9413 23.9984 13.9264 23.5779 13.1768 22.8302C12.4273 22.0826 12.0042 21.0686 12 20.01C12.004 17.799 13.798 16 16 16H24C26.206 16 28 17.794 28 20C28 22.206 26.206 24 24 24Z" fill="#FAFAFA"/>
</svg>
