<svg width="30" height="31" viewBox="0 0 30 31" fill="none" xmlns="http://www.w3.org/2000/svg">
<circle cx="15" cy="15.9836" r="15" fill="#505050"/>
<path d="M21.3612 12.6478C21.372 12.7936 21.372 12.9386 21.372 13.0836C21.372 17.5211 17.9945 22.6344 11.822 22.6344C9.92033 22.6344 8.15366 22.0836 6.66699 21.1269C6.93699 21.1578 7.19699 21.1686 7.47783 21.1686C8.98865 21.1722 10.4567 20.667 11.6453 19.7344C10.9448 19.7218 10.2658 19.4906 9.70302 19.0734C9.14024 18.6561 8.72181 18.0735 8.50616 17.4069C8.71366 17.4378 8.92199 17.4586 9.14033 17.4586C9.44116 17.4586 9.74366 17.4169 10.0245 17.3444C9.26429 17.1909 8.58072 16.7789 8.09001 16.1783C7.5993 15.5778 7.33174 14.8258 7.33283 14.0503V14.0086C7.78033 14.2578 8.29949 14.4136 8.84949 14.4344C8.38873 14.1283 8.01093 13.7128 7.74978 13.2251C7.48863 12.7374 7.35225 12.1926 7.35283 11.6394C7.35283 11.0161 7.51866 10.4444 7.80949 9.9461C8.65294 10.9836 9.70491 11.8324 10.8973 12.4375C12.0896 13.0426 13.3958 13.3904 14.7312 13.4586C14.6795 13.2086 14.6478 12.9494 14.6478 12.6894C14.6476 12.2486 14.7343 11.812 14.9029 11.4046C15.0715 10.9973 15.3187 10.6272 15.6305 10.3154C15.9422 10.0037 16.3123 9.75644 16.7197 9.58783C17.127 9.41922 17.5636 9.33255 18.0045 9.33276C18.9712 9.33276 19.8437 9.73776 20.457 10.3928C21.2085 10.2474 21.9291 9.97312 22.587 9.58193C22.3365 10.3576 21.8118 11.0154 21.1112 11.4319C21.7776 11.3559 22.429 11.1806 23.0437 10.9119C22.5846 11.5812 22.0158 12.1681 21.3612 12.6478Z" fill="white"/>
</svg>
