<svg width="30" height="31" viewBox="0 0 30 31" fill="none" xmlns="http://www.w3.org/2000/svg">
<circle cx="15" cy="15.9836" r="15" fill="#505050"/>
<path fill-rule="evenodd" clip-rule="evenodd" d="M20.3358 10.6778C19.6428 9.98024 18.8182 9.4271 17.9099 9.05046C17.0015 8.67382 16.0275 8.48117 15.0442 8.48367C10.9208 8.48367 7.56417 11.8395 7.5625 15.9645C7.5625 17.2828 7.90667 18.5695 8.56083 19.7045L7.5 23.5803L11.4658 22.5395C12.5628 23.1367 13.7918 23.4498 15.0408 23.4503H15.0442C19.1667 23.4503 22.5233 20.0945 22.525 15.9695C22.5278 14.9866 22.3358 14.0128 21.9601 13.1045C21.5843 12.1963 21.0323 11.3715 20.3358 10.6778ZM15.0442 22.1878H15.0417C13.9279 22.188 12.8347 21.8883 11.8767 21.3203L11.65 21.1853L9.29667 21.8028L9.92417 19.5087L9.77667 19.2737C9.15399 18.2824 8.82436 17.1352 8.82583 15.9645C8.8275 12.5362 11.6167 9.747 15.0467 9.747C15.8635 9.74518 16.6727 9.9054 17.4272 10.2184C18.1818 10.5314 18.8667 10.9909 19.4425 11.5703C20.0214 12.147 20.4802 12.8327 20.7924 13.5878C21.1047 14.3429 21.2641 15.1524 21.2617 15.9695C21.26 19.3978 18.4708 22.1878 15.0442 22.1878ZM18.455 17.5303C18.2675 17.4362 17.3492 16.9845 17.1775 16.922C17.0067 16.8595 16.8825 16.8287 16.7575 17.0153C16.6325 17.202 16.2742 17.6228 16.165 17.7478C16.0558 17.8728 15.9467 17.8878 15.76 17.7945C15.5733 17.7012 14.9708 17.5037 14.2567 16.867C13.7008 16.3712 13.3258 15.7595 13.2167 15.572C13.1075 15.3845 13.205 15.2837 13.2992 15.1903C13.3833 15.107 13.4858 14.972 13.5792 14.8628C13.6725 14.7537 13.7033 14.6762 13.7658 14.5512C13.8283 14.4262 13.7975 14.317 13.75 14.2237C13.7033 14.1295 13.3292 13.2095 13.1733 12.8353C13.0225 12.4728 12.8683 12.5212 12.7533 12.5162C12.6342 12.5113 12.515 12.5091 12.3958 12.5095C12.301 12.5119 12.2078 12.5339 12.1219 12.574C12.036 12.6142 11.9593 12.6717 11.8967 12.7428C11.725 12.9303 11.2425 13.382 11.2425 14.302C11.2425 15.222 11.9125 16.1112 12.0058 16.2362C12.0992 16.3612 13.3242 18.2487 15.1992 19.0587C15.6458 19.2512 15.9942 19.3662 16.265 19.4528C16.7125 19.5953 17.12 19.5745 17.4425 19.527C17.8017 19.4737 18.5483 19.0753 18.7042 18.6387C18.86 18.202 18.86 17.8278 18.8133 17.7495C18.7667 17.6712 18.6408 17.6237 18.455 17.5303Z" fill="white"/>
</svg>
